<?xml version="1.0" encoding="UTF-8"?>
<svg version="1.1" xmlns="http://www.w3.org/2000/svg" width="333" height="228">
<path d="M0 0 C15.8224358 12.48795553 26.25767015 28.68889712 28.9609375 48.86328125 C30.24494734 70.20731363 25.61084923 88.91165716 11.265625 105.40625 C-1.83767481 119.37570013 -17.31983088 128.45722039 -36.61328125 129.3046875 C-59.84936032 129.96180146 -83.08414561 127.26513571 -101.0390625 110.86328125 C-103.51735029 108.45316643 -105.95412091 106.01402294 -108.3515625 103.5234375 C-110.416285 101.47972235 -112.48456402 99.59841259 -114.6875 97.71484375 C-120.95528165 92.28899194 -126.64728947 86.26266238 -132.4375 80.33789062 C-133.77554688 78.9834082 -133.77554688 78.9834082 -135.140625 77.6015625 C-135.93807129 76.78727783 -136.73551758 75.97299316 -137.55712891 75.1340332 C-142.25680013 70.83424548 -146.59104868 67.80061909 -153.05151367 67.65795898 C-153.85211716 67.63801376 -154.65272064 67.61806854 -155.47758484 67.59751892 C-156.33705215 67.58080643 -157.19651947 67.56409393 -158.08203125 67.546875 C-158.9656282 67.5260939 -159.84922516 67.50531281 -160.75959778 67.48390198 C-163.58184035 67.41852371 -166.40417585 67.35957597 -169.2265625 67.30078125 C-171.13998356 67.25758488 -173.05339523 67.21397023 -174.96679688 67.16992188 C-179.65745687 67.0628543 -184.34821033 66.96155373 -189.0390625 66.86328125 C-189.32007813 67.64058594 -189.60109375 68.41789062 -189.890625 69.21875 C-191.57657866 73.10103104 -193.19570141 74.0741304 -197.0390625 75.86328125 C-202.63612345 76.62233472 -207.37665889 76.6351115 -212.5390625 74.23828125 C-217.32204341 69.69444939 -219.69040406 65.73773406 -220.1328125 59.16796875 C-219.94733014 54.60819415 -218.74022139 50.7355064 -215.640625 47.32421875 C-210.39483099 42.77076304 -206.33141451 41.3900815 -199.51171875 41.55078125 C-195.79115251 42.02099499 -193.76637813 43.3355253 -191.0390625 45.86328125 C-189.996105 47.84121948 -188.98997184 49.83948002 -188.0390625 51.86328125 C-186.76377686 51.87262695 -185.48849121 51.88197266 -184.17456055 51.89160156 C-179.39752558 51.93177699 -174.62111612 51.99761012 -169.84448242 52.07080078 C-167.78564551 52.09885165 -165.72670409 52.12014435 -163.66772461 52.13427734 C-136.75912976 52.32997622 -136.75912976 52.32997622 -127.0390625 61.92578125 C-126.52126221 62.42746826 -126.00346191 62.92915527 -125.4699707 63.44604492 C-123.63933472 65.23232106 -121.8389028 67.04598415 -120.0390625 68.86328125 C-118.4497012 70.45230561 -116.85982568 72.04081576 -115.26953125 73.62890625 C-112.78452143 76.11175394 -110.30348659 78.59771714 -107.83789062 81.09985352 C-90.62506828 98.51387882 -73.9213782 109.8424866 -48.7265625 110.17578125 C-31.44262328 110.06399841 -16.85402779 105.35459733 -4.19140625 93.24609375 C5.46421472 82.55656781 9.33269066 69.45255933 9.171875 55.30078125 C8.28059892 40.77628219 1.54322478 28.65983788 -9.0390625 18.86328125 C-20.88998401 9.4474806 -34.19356461 6.41853568 -49.0390625 7.86328125 C-64.08313452 10.77714939 -72.88662845 19.27681233 -83.10864258 30.14526367 C-84.45317635 31.56842515 -85.81430283 32.97585259 -87.17578125 34.3828125 C-88.36240356 35.63735229 -88.36240356 35.63735229 -89.57299805 36.91723633 C-92.49216286 39.22083624 -94.34140636 39.75220764 -98.0390625 39.86328125 C-100.40016328 38.19984767 -102.04176977 36.80067135 -103.9765625 34.73828125 C-104.48251953 34.25101563 -104.98847656 33.76375 -105.50976562 33.26171875 C-107.70974137 31.00471771 -108.99743114 29.52329062 -109.19921875 26.32421875 C-107.6308695 22.99741732 -105.29494521 20.94502065 -102.5390625 18.61328125 C-101.43182821 17.64394008 -100.32637334 16.67256281 -99.22265625 15.69921875 C-98.67722168 15.2206543 -98.13178711 14.74208984 -97.56982422 14.24902344 C-95.46963533 12.34779981 -93.5434877 10.29954264 -91.6015625 8.23828125 C-66.55774901 -17.03196817 -29.17035717 -20.50923569 0 0 Z " fill="#0A8CCF" transform="translate(280.0390625,54.13671875)"/>
<path d="M0 0 C3.08816928 2.53613902 5.94802417 5.1369677 8.81298828 7.92236328 C11.30406224 10.34381482 13.84563854 12.70163528 16.41830444 15.03663635 C21.81564738 19.94293217 27.04118786 24.98389111 32.1484375 30.19140625 C32.74263489 30.79583054 33.33683228 31.40025482 33.94903564 32.022995 C36.38013778 34.49917006 38.80845893 36.97777274 41.22314453 39.4699707 C43.02242781 41.32382827 44.83425872 43.16463846 46.6484375 45.00390625 C47.18399261 45.56324356 47.71954773 46.12258087 48.27133179 46.6988678 C54.9747433 53.44795033 61.62153709 54.47253686 70.82421875 54.50390625 C71.84804153 54.51389145 72.87186432 54.52387665 73.92671204 54.53416443 C76.0807391 54.54929277 78.23483588 54.55639187 80.38891602 54.5559082 C83.68817425 54.56250135 86.9844724 54.61712697 90.28320312 54.67382812 C92.38019807 54.68262511 94.47720726 54.68858272 96.57421875 54.69140625 C97.55968185 54.7129628 98.54514496 54.73451935 99.56047058 54.75672913 C102.17699308 54.73042398 104.46580164 54.65342169 107 54 C109.58863728 51.24168824 109.58863728 51.24168824 111 48 C114.69989473 44.57082928 117.5792349 43.70030251 122.5 43.5 C128.2466396 43.73360324 131.38601178 45.3361537 135.43359375 49.4609375 C137.83774687 52.14432654 139.67053189 54.37585078 140 58 C140.1546875 59.60875 140.1546875 59.60875 140.3125 61.25 C139.82668965 67.07972417 137.75452158 71.24547842 133.625 75.375 C128.38153753 78.62095296 124.21948034 79.41441873 118.18359375 78.5390625 C114.80788765 77.70570393 112.5960916 76.27949506 110 74 C109.27795836 72.35656515 108.60196831 70.69111099 108 69 C107.28082901 69.00888245 106.56165802 69.01776489 105.82069397 69.0269165 C99.01001532 69.1073974 92.19940866 69.16813354 85.38837528 69.20724869 C81.88753368 69.2280352 78.38708827 69.25618599 74.88647461 69.30175781 C70.85266534 69.35393628 66.81926572 69.37301886 62.78515625 69.390625 C61.54105484 69.41127014 60.29695343 69.43191528 59.01515198 69.45318604 C49.94333062 69.45550769 42.63659813 68.06430206 35.875 61.65234375 C35.22144531 61.04503418 34.56789062 60.43772461 33.89453125 59.81201172 C33.26933594 59.21404785 32.64414063 58.61608398 32 58 C30.85523659 56.95845824 29.70942867 55.91806318 28.5625 54.87890625 C27.37284527 53.77575665 26.18545546 52.67016094 25 51.5625 C24.33919434 50.94705322 23.67838867 50.33160645 22.99755859 49.69750977 C18.56002992 45.5231054 14.24275888 41.24629329 9.9765625 36.8984375 C9.45326355 36.36711716 8.9299646 35.83579681 8.39080811 35.28837585 C5.78123334 32.638256 3.18261118 29.97893706 0.6015625 27.30102539 C-10.23589079 16.18621633 -21.84097802 9.3271582 -37.625 8.75 C-51.31711306 8.9751319 -63.96175454 14.81176726 -74 24 C-85.92291243 38.72035952 -89.34460642 52.39710727 -88 71 C-85.63179807 84.13924085 -77.6569446 95.20815146 -67 103 C-56.126963 109.53785192 -45.35463312 112.94152763 -32.6875 110.3125 C-19.49003187 106.64653663 -11.94832109 98.1734149 -2.80273438 88.37304688 C-1.99771484 87.53966797 -1.19269531 86.70628906 -0.36328125 85.84765625 C0.35561279 85.08461182 1.07450684 84.32156738 1.81518555 83.53540039 C4 82 4 82 6.60327148 82.12548828 C9.95579581 83.34874815 11.86414341 85.2979618 14.375 87.8125 C15.26960938 88.68519531 16.16421875 89.55789062 17.0859375 90.45703125 C19 93 19 93 19.14453125 94.9921875 C17.42165855 98.01456486 14.92002532 100.07564659 12.3125 102.3125 C7.32549083 106.70719589 7.32549083 106.70719589 2.9375 111.6875 C-6.47855577 123.16848028 -21.57503157 129.35848798 -36 131 C-46.45723018 131.41306176 -56.37951166 130.29627287 -66 126 C-67.56621094 125.30777344 -67.56621094 125.30777344 -69.1640625 124.6015625 C-81.62094134 118.50690817 -91.98433713 108.98201368 -99 97 C-99.53109375 96.11183594 -100.0621875 95.22367187 -100.609375 94.30859375 C-110.14608523 76.95839074 -111.10972115 57.9408539 -106 39 C-103.29548033 30.72793434 -99.39517007 23.80403027 -94 17 C-93.34257813 16.16597656 -92.68515625 15.33195312 -92.0078125 14.47265625 C-69.53482717 -12.2397384 -29.2508721 -19.97077309 0 0 Z " fill="#076CD1" transform="translate(128,52)"/>
<path d="M0 0 C5.09626763 2.45375849 9.58434187 6.62419983 11.8125 11.9375 C11.874375 12.618125 11.93625 13.29875 12 14 C12.103125 15.0725 12.20625 16.145 12.3125 17.25 C11.82668965 23.07972417 9.75452158 27.24547842 5.625 31.375 C0.37780337 34.62326458 -3.7773844 35.40231823 -9.81640625 34.546875 C-14.52710424 33.36709375 -17.36216355 30.95675467 -20 27 C-20 26.01 -20 25.02 -20 24 C-21.48657104 24.00785522 -21.48657104 24.00785522 -23.00317383 24.01586914 C-56.16984657 24.17552867 -56.16984657 24.17552867 -67.3125 23.625 C-68.01930908 23.59414307 -68.72611816 23.56328613 -69.4543457 23.53149414 C-73.90856733 23.26617147 -77.77611259 22.34421255 -82 21 C-81.71125 20.443125 -81.4225 19.88625 -81.125 19.3125 C-79.9586747 16.91505355 -78.9660119 14.48403061 -78 12 C-77.34 12.33 -76.68 12.66 -76 13 C-73.6670134 13.04022391 -71.33293334 13.04320247 -69 13 C-71.475 12.01 -71.475 12.01 -74 11 C-74 10.34 -74 9.68 -74 9 C-74.99 9 -75.98 9 -77 9 C-76.67 8.01 -76.34 7.02 -76 6 C-75.13375 6.7115625 -75.13375 6.7115625 -74.25 7.4375 C-70.73042556 9.88164891 -67.51145709 10.12649933 -63.29492188 10.20874023 C-61.9032782 10.23767616 -61.9032782 10.23767616 -60.48352051 10.26719666 C-56.26819044 10.32507914 -52.05302336 10.37414677 -47.83740234 10.4050293 C-45.61231024 10.42667796 -43.38730482 10.4608609 -41.16259766 10.50756836 C-37.95176252 10.57433206 -34.74267979 10.60198259 -31.53125 10.62109375 C-30.53637573 10.64892441 -29.54150146 10.67675507 -28.51647949 10.70542908 C-25.87644437 10.69753396 -23.56226569 10.63790469 -21 10 C-18.40252501 7.24749731 -18.40252501 7.24749731 -17 4 C-11.88393835 -0.74171568 -6.6549723 -0.97341386 0 0 Z " fill="#0E86CD" transform="translate(256,96)"/>
<path d="M0 0 C5.11690855 2.41890222 6.65086101 5.00037474 9 10 C10.27528564 10.0093457 11.55057129 10.01869141 12.86450195 10.02832031 C17.64153692 10.06849574 22.41794638 10.13432887 27.19458008 10.20751953 C29.25341699 10.2355704 31.31235841 10.2568631 33.37133789 10.27099609 C60.02201659 10.46481921 60.02201659 10.46481921 68.98168945 19.01074219 C69.46210693 19.50219727 69.94252441 19.99365234 70.4375 20.5 C70.96754639 21.0146582 71.49759277 21.52931641 72.04370117 22.05957031 C73.71343449 23.6895657 75.357269 25.34283376 77 27 C78.16308949 28.15202485 79.32715229 29.30306788 80.4921875 30.453125 C83.3483757 33.28248872 86.18015836 36.1344312 89 39 C85.71023192 40.09658936 84.28696233 39.79953138 81 39 C81.66 38.67 82.32 38.34 83 38 C83 37.34 83 36.68 83 36 C81.515 35.505 81.515 35.505 80 35 C79.67 34.01 79.34 33.02 79 32 C76.99878825 29.63493157 76.03200339 29.0106678 73 28 C72.5875 27.21625 72.175 26.4325 71.75 25.625 C69.41838403 22.12757605 66.8359137 21.53436548 63 20 C62.01 18.515 62.01 18.515 61 17 C55.62111046 14.46437561 50.03479669 14.60384631 44.203125 14.48046875 C42.65815338 14.44074699 42.65815338 14.44074699 41.08197021 14.40022278 C38.91364453 14.34770559 36.74519525 14.30008995 34.57666016 14.25708008 C31.24701428 14.18743755 27.91877897 14.09155971 24.58984375 13.99414062 C22.48180641 13.94632165 20.37373343 13.9000437 18.265625 13.85546875 C17.26670227 13.82438522 16.26777954 13.7933017 15.23858643 13.76127625 C13.85639923 13.7405883 13.85639923 13.7405883 12.44628906 13.71948242 C11.63387756 13.7010881 10.82146606 13.68269379 9.98443604 13.66374207 C9.32957214 13.77470718 8.67470825 13.8856723 8 14 C7.01 15.485 7.01 15.485 6 17 C6.33 17.99 6.66 18.98 7 20 C10.14808209 21.57404105 13.53981764 21.22031347 17 21.28125 C18.18722656 21.30886414 18.18722656 21.30886414 19.3984375 21.33703613 C21.93221527 21.39585954 24.46606041 21.44864933 27 21.5 C30.33347957 21.56755347 33.66673921 21.64122047 37 21.71875 C38.15628906 21.73911316 38.15628906 21.73911316 39.3359375 21.7598877 C44.77439638 21.88719819 44.77439638 21.88719819 47 23 C47 23.66 47 24.32 47 25 C34.13 25 21.26 25 8 25 C7.01 27.475 7.01 27.475 6 30 C2.24574967 33.65545426 -0.92589659 34.317433 -6 34.5 C-11.11720994 34.31000458 -14.18069828 33.62833663 -18 30 C-21.99405627 25.35825893 -23.24490608 21.02060785 -23 15 C-21.83799434 8.76539268 -19.12698815 5.55750198 -14 2 C-9.46551572 -0.6662392 -5.13853267 -0.64941961 0 0 Z " fill="#0B7CCC" transform="translate(83,96)"/>
<path d="M0 0 C0.66 0.33 1.32 0.66 2 1 C3.7566923 1.09072287 5.5168501 1.11754144 7.27587891 1.11352539 C8.3768692 1.11344986 9.4778595 1.11337433 10.61221313 1.11329651 C11.80494843 1.10813522 12.99768372 1.10297394 14.2265625 1.09765625 C15.44451508 1.0962413 16.66246765 1.09482635 17.91732788 1.09336853 C21.8199099 1.08775639 25.72243523 1.07520179 29.625 1.0625 C32.26562417 1.05748657 34.90624924 1.05292339 37.546875 1.04882812 C44.03126945 1.03778301 50.51563068 1.02103302 57 1 C56.49726563 1.45117188 55.99453125 1.90234375 55.4765625 2.3671875 C54.98929688 2.90601562 54.50203125 3.44484375 54 4 C54.3185177 6.10820797 54.3185177 6.10820797 55 8 C54.67 8.33 54.34 8.66 54 9 C54.99 9.66 55.98 10.32 57 11 C49.43777341 11.05081236 41.87559105 11.08578087 34.31323242 11.10986328 C31.74192662 11.11990555 29.1706322 11.13354195 26.59936523 11.15087891 C22.89824613 11.17520484 19.19727836 11.18650109 15.49609375 11.1953125 C13.77851112 11.21079636 13.77851112 11.21079636 12.02622986 11.22659302 C6.28341487 11.22739584 1.41493229 10.96720985 -4 9 C-3.71125 8.443125 -3.4225 7.88625 -3.125 7.3125 C-1.9586747 4.91505355 -0.9660119 2.48403061 0 0 Z " fill="#067ED0" transform="translate(178,108)"/>
<path d="M0 0 C0 0.33 0 0.66 0 1 C-6.79461431 2.41554465 -11.41145068 1.19618311 -18 -1 C-28.68011099 -1.94427811 -39.29394677 -1.96167646 -49 3 C-50.09828125 3.49886719 -50.09828125 3.49886719 -51.21875 4.0078125 C-53.17360309 4.87740441 -53.17360309 4.87740441 -54 7 C-55.03640625 7.40992188 -56.0728125 7.81984375 -57.140625 8.2421875 C-61.51959612 10.02016607 -64.42865994 12.83491961 -67.75 16.125 C-73.63966232 21.87988744 -73.63966232 21.87988744 -77 23 C-77 24.32 -77 25.64 -77 27 C-77.99 27.33 -78.98 27.66 -80 28 C-80.33 30.31 -80.66 32.62 -81 35 C-82.65 34.34 -84.3 33.68 -86 33 C-86.33 33.99 -86.66 34.98 -87 36 C-86.34 36.33 -85.68 36.66 -85 37 C-84.62875 38.7015625 -84.62875 38.7015625 -84.25 40.4375 C-83.8375 41.613125 -83.425 42.78875 -83 44 C-79.99405579 45.53146378 -79.99405579 45.53146378 -77 46 C-77 45.34 -77 44.68 -77 44 C-76.34 44 -75.68 44 -75 44 C-75 43.01 -75 42.02 -75 41 C-74.34 41 -73.68 41 -73 41 C-73 40.34 -73 39.68 -73 39 C-71.125 38.375 -71.125 38.375 -69 38 C-68.34 38.66 -67.68 39.32 -67 40 C-68.19160698 41.32770422 -69.40415139 42.63663322 -70.625 43.9375 C-71.29789063 44.66839844 -71.97078125 45.39929688 -72.6640625 46.15234375 C-75.61282576 48.48472673 -77.23075083 49.09030988 -81 49 C-83.36110078 47.33656642 -85.00270727 45.9373901 -86.9375 43.875 C-87.44345703 43.38773438 -87.94941406 42.90046875 -88.47070312 42.3984375 C-90.67067887 40.14143646 -91.95836864 38.66000937 -92.16015625 35.4609375 C-90.591807 32.13413607 -88.25588271 30.0817394 -85.5 27.75 C-84.39276571 26.78065883 -83.28731084 25.80928156 -82.18359375 24.8359375 C-81.63815918 24.35737305 -81.09272461 23.87880859 -80.53076172 23.38574219 C-78.43057283 21.48451856 -76.5044252 19.43626139 -74.5625 17.375 C-54.30704612 -3.06359542 -26.9723712 -9.03110785 0 0 Z " fill="#1B74B9" transform="translate(263,45)"/>
<path d="M0 0 C6.06481249 -0.09961787 12.12913826 -0.17182006 18.19458008 -0.21972656 C20.25358386 -0.23971846 22.31253177 -0.26692128 24.37133789 -0.30175781 C50.80980571 -0.73759195 50.80980571 -0.73759195 59.98168945 8.01074219 C60.46210693 8.50219727 60.94252441 8.99365234 61.4375 9.5 C61.96754639 10.0146582 62.49759277 10.52931641 63.04370117 11.05957031 C64.71343449 12.6895657 66.357269 14.34283376 68 16 C69.16308949 17.15202485 70.32715229 18.30306788 71.4921875 19.453125 C74.3483757 22.28248872 77.18015836 25.1344312 80 28 C76.71023192 29.09658936 75.28696233 28.79953138 72 28 C72.99 27.505 72.99 27.505 74 27 C74 26.34 74 25.68 74 25 C72.515 24.505 72.515 24.505 71 24 C70.505 22.515 70.505 22.515 70 21 C67.99878825 18.63493157 67.03200339 18.0106678 64 17 C63.38125 15.824375 63.38125 15.824375 62.75 14.625 C60.41838403 11.12757605 57.8359137 10.53436548 54 9 C53.34 8.01 52.68 7.02 52 6 C48.94570927 4.78715124 48.94570927 4.78715124 46 4 C46 3.34 46 2.68 46 2 C44.71311279 2.01047363 43.42622559 2.02094727 42.1003418 2.03173828 C37.33132706 2.06790544 32.56232448 2.09088854 27.79321289 2.10986328 C25.728088 2.11992835 23.66297737 2.13358154 21.59790039 2.15087891 C18.63163736 2.17510493 15.66556256 2.18647797 12.69921875 2.1953125 C11.31158577 2.21079636 11.31158577 2.21079636 9.8959198 2.22659302 C9.03525406 2.22674408 8.17458832 2.22689514 7.2878418 2.22705078 C6.53061325 2.231492 5.7733847 2.23593323 4.99320984 2.24050903 C3 2 3 2 0 0 Z " fill="#287BB6" transform="translate(92,107)"/>
<path d="M0 0 C3.50478242 2.84000434 6.80369566 5.81812593 10 9 C6.65175218 9 6.0218309 8.55627104 3.4375 6.625 C2.83808594 6.18414062 2.23867187 5.74328125 1.62109375 5.2890625 C0 4 0 4 -2 2 C-4.06874034 1.3574765 -4.06874034 1.3574765 -6 1 C-6 0.34 -6 -0.32 -6 -1 C-6.99 -0.67 -7.98 -0.34 -9 0 C-11.1875 -1.3125 -11.1875 -1.3125 -13 -3 C-13 -3.66 -13 -4.32 -13 -5 C-25.64771953 -9.87343321 -40.64255903 -9.55807518 -53.5 -5.66796875 C-57.09995038 -4.70610701 -60.29716489 -4.7863749 -64 -5 C-45.52898935 -17.3140071 -17.22032286 -11.58498904 0 0 Z " fill="#2465B6" transform="translate(128,52)"/>
<path d="M0 0 C0.66 0 1.32 0 2 0 C2 2.31 2 4.62 2 7 C-0.475 6.01 -0.475 6.01 -3 5 C-3.33 5.99 -3.66 6.98 -4 8 C-3.34 8.33 -2.68 8.66 -2 9 C-1.7525 10.134375 -1.505 11.26875 -1.25 12.4375 C-0.8375 13.613125 -0.425 14.78875 0 16 C3.00594421 17.53146378 3.00594421 17.53146378 6 18 C6 17.34 6 16.68 6 16 C6.66 16 7.32 16 8 16 C8 15.01 8 14.02 8 13 C8.66 13 9.32 13 10 13 C10 12.34 10 11.68 10 11 C11.875 10.375 11.875 10.375 14 10 C14.66 10.66 15.32 11.32 16 12 C14.80839302 13.32770422 13.59584861 14.63663322 12.375 15.9375 C11.70210937 16.66839844 11.02921875 17.39929688 10.3359375 18.15234375 C7.38717424 20.48472673 5.76924917 21.09030988 2 21 C-0.36110078 19.33656642 -2.00270727 17.9373901 -3.9375 15.875 C-4.44345703 15.38773438 -4.94941406 14.90046875 -5.47070312 14.3984375 C-6.90234375 12.9296875 -6.90234375 12.9296875 -9 10 C-8.92567516 6.52159754 -8.46422233 5.46422233 -6 3 C-4.34183216 2.31246699 -2.67540664 1.64438717 -1 1 C-0.67 0.67 -0.34 0.34 0 0 Z " fill="#1474C0" transform="translate(180,73)"/>
<path d="M0 0 C4.65086705 1.26841829 7.09420659 3.89945845 10.25390625 7.34375 C12.07833229 9.07430177 13.73593697 9.94283229 16 11 C17.678298 12.31866272 19.34614767 13.65080468 21 15 C23.675337 16.3376685 25.83175118 16.20468368 28.82666016 16.29711914 C30.65833237 16.3570681 30.65833237 16.3570681 32.52700806 16.41822815 C33.86435664 16.45730355 35.2017082 16.49627717 36.5390625 16.53515625 C37.90385199 16.57816086 39.26862855 16.62157741 40.63339233 16.66539001 C44.2270134 16.77964438 47.82078311 16.88829152 51.41461182 16.99578857 C55.08120113 17.10644941 58.74762304 17.22238927 62.4140625 17.33789062 C69.60922124 17.56377316 76.80454509 17.78373482 84 18 C84 18.33 84 18.66 84 19 C76.46292021 19.09309011 68.9259008 19.16396136 61.38837528 19.20724869 C57.88753368 19.2280352 54.38708827 19.25618599 50.88647461 19.30175781 C46.85266534 19.35393628 42.81926572 19.37301886 38.78515625 19.390625 C37.54105484 19.41127014 36.29695343 19.43191528 35.01515198 19.45318604 C26.03596285 19.45548398 18.61874832 18.06436343 11.9375 11.6875 C11.29683594 11.09066406 10.65617188 10.49382812 9.99609375 9.87890625 C9.33738281 9.25886719 8.67867187 8.63882813 8 8 C6.50377813 6.70395876 5.00387753 5.41215001 3.5 4.125 C2.31282452 3.10676872 1.13874663 2.07211784 0 1 C0 0.67 0 0.34 0 0 Z " fill="#246FB0" transform="translate(152,102)"/>
<path d="M0 0 C0.66 0.33 1.32 0.66 2 1 C0.96552734 2.05574219 0.96552734 2.05574219 -0.08984375 3.1328125 C-7.94039678 11.31889525 -14.09486661 20.00643179 -19.625 29.91015625 C-20.305625 30.94462891 -20.305625 30.94462891 -21 32 C-21.66 32 -22.32 32 -23 32 C-23.66 34.31 -24.32 36.62 -25 39 C-26.77312007 33.68063978 -23.38479101 28.82270856 -21 24 C-15.57940306 14.86280565 -8.42443981 6.4735169 0 0 Z " fill="#1A60BC" transform="translate(48,55)"/>
<path d="M0 0 C0.66 0.33 1.32 0.66 2 1 C1.34 2.32 0.68 3.64 0 5 C-0.99 5 -1.98 5 -3 5 C-3.05383848 7.45862401 -3.09359038 9.9160755 -3.125 12.375 C-3.14175781 13.07367188 -3.15851562 13.77234375 -3.17578125 14.4921875 C-3.19344267 16.32897486 -3.10303261 18.16601963 -3 20 C-2.34 20.66 -1.68 21.32 -1 22 C-0.67 22.66 -0.34 23.32 0 24 C2.01669827 25.13350534 2.01669827 25.13350534 4 26 C4 26.33 4 26.66 4 27 C4.75925781 27.13277344 5.51851562 27.26554687 6.30078125 27.40234375 C7.29464844 27.57894531 8.28851563 27.75554687 9.3125 27.9375 C10.79169922 28.19853516 10.79169922 28.19853516 12.30078125 28.46484375 C15 29 15 29 18 30 C13.81388848 32.09305576 8.55867052 31.42364608 4 31 C-0.90331294 28.72346185 -3.5537698 25.80185929 -6 21 C-7.67510381 14.81588389 -7.13529209 9.60054192 -4 4 C-1.8125 1.5 -1.8125 1.5 0 0 Z " fill="#196BB6" transform="translate(67,99)"/>
<path d="M0 0 C4.96916202 2.34905841 7.00945773 4.91305864 9 10 C9 10.66 9 11.32 9 12 C24.18 12.33 39.36 12.66 55 13 C55 13.33 55 13.66 55 14 C48.82528854 14.04949211 42.65069295 14.08576343 36.47583008 14.10986328 C34.37587472 14.11991169 32.27593331 14.13355266 30.17602539 14.15087891 C27.1550756 14.17517801 24.13431105 14.18649482 21.11328125 14.1953125 C19.70832146 14.21079636 19.70832146 14.21079636 18.27497864 14.22659302 C13.74277719 14.22737055 10.10916422 14.17300725 6 12 C6 10.68 6 9.36 6 8 C5.34 8 4.68 8 4 8 C3.3503125 7.319375 3.3503125 7.319375 2.6875 6.625 C0.64371183 4.65690769 -1.34530324 3.93273129 -4 3 C-4 2.67 -4 2.34 -4 2 C-7.49234244 1.90021879 -10.59437148 2.22157062 -14 3 C-9.57413501 -0.84458779 -5.64635177 -0.79387884 0 0 Z " fill="#0875C5" transform="translate(83,96)"/>
<path d="M0 0 C8.07227199 5.53470134 14.65783789 12.43381151 21.5 19.375 C22.71567649 20.60072609 23.93181861 21.82599055 25.1484375 23.05078125 C28.10435586 26.02855682 31.05389464 29.01251676 34 32 C32.125 33.0625 32.125 33.0625 30 34 C29.34 33.67 28.68 33.34 28 33 C27.5 30.5 27.5 30.5 27 28 C26.34 27.67 25.68 27.34 25 27 C25 26.34 25 25.68 25 25 C24.34 25 23.68 25 23 25 C23 24.34 23 23.68 23 23 C22.071875 22.5359375 22.071875 22.5359375 21.125 22.0625 C17 20 17 20 15.625 17.5625 C13.86376478 14.78516753 12.91781773 14.27654526 10 13 C8.97895449 12.02149805 7.9793879 11.02019573 7 10 C6.34 9.505 5.68 9.01 5 8.5 C3.10731814 7.08048861 1.47862746 5.84828432 0 4 C0 2.68 0 1.36 0 0 Z " fill="#1D60B9" transform="translate(138,62)"/>
<path d="M0 0 C0 0.33 0 0.66 0 1 C-6.79461431 2.41554465 -11.41145068 1.19618311 -18 -1 C-21.24593348 -1.22828965 -24.49685728 -1.18516297 -27.75 -1.1875 C-29.07257813 -1.20586914 -29.07257813 -1.20586914 -30.421875 -1.22460938 C-34.4458578 -1.23359148 -38.03664185 -1.14840291 -41.890625 0.07421875 C-44.90625866 0.97208958 -46.13835446 1.14465822 -49 0 C-32.2437878 -5.61045072 -16.7562122 -5.61045072 0 0 Z " fill="#2786BC" transform="translate(263,45)"/>
<path d="M0 0 C2.78211944 0.37596209 4.5879284 0.67318459 6.8125 2.4375 C8 4 8 4 8 6 C9.32 6 10.64 6 12 6 C12.66 7.65 13.32 9.3 14 11 C14.66 11 15.32 11 16 11 C16 11.66 16 12.32 16 13 C16.5775 13.20625 17.155 13.4125 17.75 13.625 C20 15 20 15 21.8125 18 C24.53311152 21.73112437 26.55948398 22.14605461 31 23 C30.34 23.33 29.68 23.66 29 24 C28.34786708 26.02463255 28.34786708 26.02463255 28 28 C18.66666667 18.66666667 9.33333333 9.33333333 0 0 Z " fill="#177FBC" transform="translate(136,123)"/>
<path d="M0 0 C1.18335938 0.00064453 2.36671875 0.00128906 3.5859375 0.00195312 C12.32777256 0.04675752 12.32777256 0.04675752 15.75 1.1875 C15.75 1.8475 15.75 2.5075 15.75 3.1875 C17.41666667 3.52083333 19.08333333 3.85416667 20.75 4.1875 C23.25 4.6875 23.25 4.6875 25.75 5.1875 C25.75 5.8475 25.75 6.5075 25.75 7.1875 C26.41 7.1875 27.07 7.1875 27.75 7.1875 C28.41 8.8375 29.07 10.4875 29.75 12.1875 C27.48996957 11.06824683 25.24810162 9.92364485 23.015625 8.75 C7.52395131 0.72322607 -6.5715752 0.38959698 -23.25 5.1875 C-17.9737134 -1.6406356 -7.63433493 -0.08005097 0 0 Z " fill="#2982BD" transform="translate(241.25,59.8125)"/>
<path d="M0 0 C1.08699441 3.26098322 0.85541108 3.86044377 0 7 C-0.08934347 8.50451031 -0.13061158 10.0123721 -0.1328125 11.51953125 C-0.13410156 12.37740234 -0.13539062 13.23527344 -0.13671875 14.11914062 C-0.13285156 15.00794922 -0.12898438 15.89675781 -0.125 16.8125 C-0.12886719 17.68970703 -0.13273437 18.56691406 -0.13671875 19.47070312 C-0.12931333 24.4212291 0.16116815 29.12012902 1 34 C0.34 32.68 -0.32 31.36 -1 30 C-1.66 30 -2.32 30 -3 30 C-3 29.34 -3 28.68 -3 28 C-4.32 27.34 -5.64 26.68 -7 26 C-6.67 25.34 -6.34 24.68 -6 24 C-5.34 24.33 -4.68 24.66 -4 25 C-4.03480469 23.85402344 -4.06960937 22.70804688 -4.10546875 21.52734375 C-4.13362703 19.99741061 -4.16092499 18.46746146 -4.1875 16.9375 C-4.22520508 15.80924805 -4.22520508 15.80924805 -4.26367188 14.65820312 C-4.33285271 9.33127915 -3.44914534 5.74406239 -1 1 C-0.67 0.67 -0.34 0.34 0 0 Z " fill="#165FB7" transform="translate(40,96)"/>
<path d="M0 0 C-14.28248752 6.53056148 -25.60790089 7.25304217 -41 6 C-41 5.67 -41 5.34 -41 5 C-36.89385776 4.03615363 -32.95924139 3.8366128 -28.75 3.6875 C-21.75529504 3.36773269 -15.25000453 2.10614394 -8.49707031 0.28393555 C-3.28481509 -1.09493836 -3.28481509 -1.09493836 0 0 Z " fill="#185FB8" transform="translate(115,176)"/>
<path d="M0 0 C0 3.68336012 -0.87425029 5.02579487 -3 8 C-12.19204496 15.71863884 -23.42090015 14.70203385 -34.71679688 14.32226562 C-37.16950747 13.97607465 -38.86222717 13.22474012 -41 12 C-38.30021399 10.65010699 -36.91670948 11.36832891 -34 12 C-23.82581685 12.99459162 -13.6349807 11.02639878 -5.3125 4.875 C-3.43341712 3.32183942 -1.72532479 1.72532479 0 0 Z " fill="#2867B0" transform="translate(115,151)"/>
<path d="M0 0 C0 0.66 0 1.32 0 2 C0.99 2 1.98 2 3 2 C3 2.66 3 3.32 3 4 C1.88882813 3.71125 0.77765625 3.4225 -0.3671875 3.125 C-13.1256144 -0.10014652 -22.98431805 -0.50473604 -36 2 C-36 1.01 -36 0.02 -36 -1 C-10.9103461 -4.5257732 -10.9103461 -4.5257732 0 0 Z " fill="#225BAD" transform="translate(109,61)"/>
<path d="M0 0 C1.98 0.99 3.96 1.98 6 3 C6 3.66 6 4.32 6 5 C6.66 5 7.32 5 8 5 C8.33 7.97 8.66 10.94 9 14 C4.8020216 12.9505054 3.62656104 12.2832013 1 9 C1 7.68 1 6.36 1 5 C0.01 4.67 -0.98 4.34 -2 4 C-1.34 2.68 -0.68 1.36 0 0 Z " fill="#0881D0" transform="translate(177,77)"/>
<path d="M0 0 C1.32 0.99 2.64 1.98 4 3 C3.6273708 7.51413661 0.39172515 9.72325707 -2.8125 12.5 C-6.29720166 15.58536915 -9.7501916 18.66363496 -13 22 C-13 20.68 -13 19.36 -13 18 C-12.34 18 -11.68 18 -11 18 C-11.33 16.02 -11.66 14.04 -12 12 C-10.3603125 11.62875 -10.3603125 11.62875 -8.6875 11.25 C-4.80058004 9.93240001 -4.16239317 9.24358975 -2 6 C-1.01 6 -0.02 6 1 6 C0.67 4.02 0.34 2.04 0 0 Z " fill="#1467BA" transform="translate(143,142)"/>
<path d="M0 0 C2.81223254 0.96917435 3.85812555 2.05204467 5.67578125 4.37695312 C6.18753906 5.01761719 6.69929688 5.65828125 7.2265625 6.31835938 C7.60167969 6.81207031 7.97679687 7.30578125 8.36328125 7.81445312 C7.04328125 7.81445312 5.72328125 7.81445312 4.36328125 7.81445312 C4.36328125 7.15445313 4.36328125 6.49445313 4.36328125 5.81445312 C2.71328125 5.81445312 1.06328125 5.81445312 -0.63671875 5.81445312 C-0.30671875 5.15445313 0.02328125 4.49445313 0.36328125 3.81445312 C-4.89359731 5.10917396 -7.90069901 7.57330699 -11.51171875 11.43945312 C-12.00929688 11.95507812 -12.506875 12.47070312 -13.01953125 13.00195312 C-14.23465215 14.26380945 -15.43703 15.53791598 -16.63671875 16.81445312 C-17.29671875 16.48445313 -17.95671875 16.15445313 -18.63671875 15.81445312 C-16.0988849 13.1027034 -13.52787446 10.42486779 -10.94921875 7.75195312 C-9.86737305 6.59469727 -9.86737305 6.59469727 -8.76367188 5.4140625 C-8.05791016 4.68896484 -7.35214844 3.96386719 -6.625 3.21679688 C-5.98087158 2.54124756 -5.33674316 1.86569824 -4.6730957 1.16967773 C-2.63671875 -0.18554688 -2.63671875 -0.18554688 0 0 Z " fill="#206AB6" transform="translate(134.63671875,134.185546875)"/>
<path d="M0 0 C-0.35191406 0.43828125 -0.70382813 0.8765625 -1.06640625 1.328125 C-5.02905083 6.4185196 -8.2977841 11.75803916 -11.484375 17.36328125 C-12.58792365 19.2831146 -13.77167034 21.15750551 -15 23 C-15.17835515 18.45194365 -14.99785435 15.1205746 -13 11 C-12.34 11 -11.68 11 -11 11 C-10.71125 10.360625 -10.4225 9.72125 -10.125 9.0625 C-9 7 -9 7 -7 6 C-7 4.68 -7 3.36 -7 2 C-7 1.34 -7 0.68 -7 0 C-4.3333581 -1.33332095 -2.83319697 -0.67102033 0 0 Z " fill="#1C61B4" transform="translate(56,73)"/>
<path d="M0 0 C0.33 0 0.66 0 1 0 C2.125 6.75 2.125 6.75 1 9 C0.90496029 10.41286385 0.86927147 11.8300385 0.8671875 13.24609375 C0.86525391 14.50196289 0.86525391 14.50196289 0.86328125 15.78320312 C0.86714844 16.65912109 0.87101562 17.53503906 0.875 18.4375 C0.87113281 19.30955078 0.86726563 20.18160156 0.86328125 21.08007812 C0.86457031 21.91861328 0.86585937 22.75714844 0.8671875 23.62109375 C0.86831543 24.3886499 0.86944336 25.15620605 0.87060547 25.94702148 C0.92473656 28.20075403 0.92473656 28.20075403 2 31 C2.06740865 32.56118428 2.08514456 34.1250252 2.0625 35.6875 C2.05347656 36.49574219 2.04445313 37.30398437 2.03515625 38.13671875 C2.02355469 38.75160156 2.01195312 39.36648437 2 40 C-4.48362024 27.95899099 -2.64019593 12.87095515 0 0 Z " fill="#215FB0" transform="translate(21,94)"/>
<path d="M0 0 C3.91075925 1.98968453 5.57689098 3.36533646 8 7 C7.01 7 6.02 7 5 7 C4.53980469 6.52304688 4.07960938 6.04609375 3.60546875 5.5546875 C0.98318159 3.01534373 -1.83608657 3.18608237 -5.35546875 2.93359375 C-9.55539666 3.03905723 -12.26140163 4.06394013 -16 6 C-17.55966008 8.01979579 -17.55966008 8.01979579 -18 10 C-18.66 10 -19.32 10 -20 10 C-18.64717831 5.57258356 -16.76701112 3.63690779 -13 1 C-9.05570181 -0.9721491 -4.29883571 -0.44867961 0 0 Z " fill="#247DB9" transform="translate(256,96)"/>
<path d="M0 0 C-13.68459209 11.70735065 -13.68459209 11.70735065 -21 15 C-21.66 14.67 -22.32 14.34 -23 14 C-22.34 13.01 -21.68 12.02 -21 11 C-20.34 11 -19.68 11 -19 11 C-19 10.34 -19 9.68 -19 9 C-15.535 8.505 -15.535 8.505 -12 8 C-12 7.34 -12 6.68 -12 6 C-11.01 6 -10.02 6 -9 6 C-9.33 5.01 -9.66 4.02 -10 3 C-9 1 -9 1 -5.5625 -0.1875 C-2 -1 -2 -1 0 0 Z " fill="#218AC1" transform="translate(288,163)"/>
<path d="M0 0 C14.82352941 12.66176471 14.82352941 12.66176471 20 18 C18.35 17.67 16.7 17.34 15 17 C15 16.34 15 15.68 15 15 C14.21625 14.690625 13.4325 14.38125 12.625 14.0625 C10 13 10 13 8 12 C7.67 12.66 7.34 13.32 7 14 C6.34 13.34 5.68 12.68 5 12 C5.66 12 6.32 12 7 12 C4.62370911 7.85329961 4.62370911 7.85329961 1 5 C0.375 2.4375 0.375 2.4375 0 0 Z " fill="#1D83BC" transform="translate(172,136)"/>
<path d="M0 0 C4.82034262 0.41317222 6.90992611 2.38019915 10 6 C10 6.66 10 7.32 10 8 C10.639375 8.12375 11.27875 8.2475 11.9375 8.375 C12.618125 8.58125 13.29875 8.7875 14 9 C14.33 9.66 14.66 10.32 15 11 C16.32 11 17.64 11 19 11 C19 11.66 19 12.32 19 13 C19.99 13 20.98 13 22 13 C22 13.99 22 14.98 22 16 C13.01893448 13.40752748 5.46276344 7.53484613 0 0 Z " fill="#1F61B6" transform="translate(38,160)"/>
<path d="M0 0 C9.66606951 1.45902936 17.21471638 7.2547488 23 15 C18.58342362 12.96158013 14.44742258 10.44742258 11 7 C8.93125966 6.3574765 8.93125966 6.3574765 7 6 C7 5.34 7 4.68 7 4 C6.01 4.33 5.02 4.66 4 5 C1.8125 3.6875 1.8125 3.6875 0 2 C0 1.34 0 0.68 0 0 Z " fill="#2060B6" transform="translate(115,47)"/>
<path d="M0 0 C4.14856188 1.88570995 6.07524591 3.66115775 7.875 7.75 C8.24625 8.8225 8.6175 9.895 9 11 C8.34 11 7.68 11 7 11 C7 10.01 7 9.02 7 8 C6.01 8 5.02 8 4 8 C3 7 2 6 1 5 C-1.59915538 3.80972016 -1.59915538 3.80972016 -4 3 C-4 2.67 -4 2.34 -4 2 C-7.49234244 1.90021879 -10.59437148 2.22157062 -14 3 C-9.56988538 -0.84827929 -5.65021565 -0.78549601 0 0 Z " fill="#1E6FB6" transform="translate(83,96)"/>
<path d="M0 0 C3.3125 0.5 3.3125 0.5 7 2 C8.12581913 3.98195535 8.72084074 5.82606997 9.296875 8.02734375 C10.11137476 10.31246808 11.19343456 11.41677369 13 13 C12.67 13.66 12.34 14.32 12 15 C7.71 10.71 3.42 6.42 -1 2 C-0.67 1.34 -0.34 0.68 0 0 Z " fill="#1461C0" transform="translate(134,82)"/>
<path d="M0 0 C0.99 0.33 1.98 0.66 3 1 C3 1.66 3 2.32 3 3 C4.546875 2.7525 4.546875 2.7525 6.125 2.5 C9.48244326 2.06678152 12.62336157 1.91764297 16 2 C12.7349188 3.87135349 9.77022975 4.50610676 6.0625 5.0625 C2.35330883 5.6298984 -1.32591796 6.23541203 -5 7 C-5.33 6.01 -5.66 5.02 -6 4 C-5.34 3.01 -4.68 2.02 -4 1 C-3.01 1 -2.02 1 -1 1 C-0.67 0.67 -0.34 0.34 0 0 Z " fill="#0881C8" transform="translate(224,56)"/>
<path d="M0 0 C0.99 0.495 0.99 0.495 2 1 C2.99 1.33 3.98 1.66 5 2 C5.66 2.33 6.32 2.66 7 3 C7.625 6.0625 7.625 6.0625 8 9 C9.11375 9.1546875 9.11375 9.1546875 10.25 9.3125 C13.17014018 10.04253504 14.73187554 11.06789398 17 13 C15.58194169 12.71517632 14.16559621 12.42181856 12.75 12.125 C11.96109375 11.96257812 11.1721875 11.80015625 10.359375 11.6328125 C8.03168856 11.00849925 6.10968048 10.15161458 4 9 C4 7.68 4 6.36 4 5 C3.01 5 2.02 5 1 5 C0.67 3.35 0.34 1.7 0 0 Z " fill="#136AC2" transform="translate(56,168)"/>
<path d="M0 0 C6.20101304 3.49800736 10.39973733 8.64324969 15 14 C14.67 14.66 14.34 15.32 14 16 C12.35 16 10.7 16 9 16 C9.33 14.68 9.66 13.36 10 12 C9.34 12 8.68 12 8 12 C7.7525 11.195625 7.505 10.39125 7.25 9.5625 C6.8375 8.716875 6.425 7.87125 6 7 C5.34 6.855625 4.68 6.71125 4 6.5625 C3.34 6.376875 2.68 6.19125 2 6 C0.75 2.9375 0.75 2.9375 0 0 Z " fill="#2181BD" transform="translate(281,56)"/>
<path d="M0 0 C0.66 0.33 1.32 0.66 2 1 C-1.75 4 -1.75 4 -4 4 C-4 4.66 -4 5.32 -4 6 C-4.66 6 -5.32 6 -6 6 C-6.33 6.66 -6.66 7.32 -7 8 C-12.28 8 -17.56 8 -23 8 C-23 7.67 -23 7.34 -23 7 C-22.01 6.82984375 -21.02 6.6596875 -20 6.484375 C-12.74090194 5.17239018 -6.51643901 3.57765279 0 0 Z " fill="#2989BF" transform="translate(263,157)"/>
<path d="M0 0 C4.6182583 0.54792895 7.98149647 2.58964488 11.8125 5.0625 C12.40998047 5.43955078 13.00746094 5.81660156 13.62304688 6.20507812 C15.08636577 7.12989566 16.54379523 8.06402065 18 9 C15 10 15 10 12 8.5625 C11.01 8.046875 10.02 7.53125 9 7 C8.01 7 7.02 7 6 7 C6 6.34 6 5.68 6 5 C5.195625 4.731875 4.39125 4.46375 3.5625 4.1875 C2.716875 3.795625 1.87125 3.40375 1 3 C0.67 2.01 0.34 1.02 0 0 Z " fill="#2885BD" transform="translate(263,46)"/>
<path d="M0 0 C0 3.7138017 -0.7990447 5.03169702 -3 8 C-5.77734375 9.8359375 -5.77734375 9.8359375 -8.9375 11.375 C-9.97777344 11.89835938 -11.01804687 12.42171875 -12.08984375 12.9609375 C-15.04526716 14.0161625 -16.15291541 14.16627561 -19 13 C-17.7625 12.5875 -16.525 12.175 -15.25 11.75 C-11.60886956 10.37899642 -9.60473981 8.94083527 -7 6 C-5.76235774 4.90256994 -4.51139409 3.82004489 -3.25 2.75 C-2.63640625 2.22921875 -2.0228125 1.7084375 -1.390625 1.171875 C-0.93171875 0.78515625 -0.4728125 0.3984375 0 0 Z " fill="#1963BE" transform="translate(115,151)"/>
<path d="M0 0 C2.80735909 1.14373889 4.21623353 2.23376598 6.3125 4.5 C9.59045107 7.54925681 11.69403611 8.07126269 16 9 C15.01 9.495 15.01 9.495 14 10 C13.34786708 12.02463255 13.34786708 12.02463255 13 14 C10.83031809 11.85714108 8.66416525 9.71091768 6.5 7.5625 C5.87996094 6.95083984 5.25992188 6.33917969 4.62109375 5.70898438 C4.03457031 5.12568359 3.44804687 4.54238281 2.84375 3.94140625 C2.02680664 3.13231812 2.02680664 3.13231812 1.19335938 2.30688477 C0 1 0 1 0 0 Z " fill="#2A81B7" transform="translate(151,137)"/>
<path d="M0 0 C0.66 0.66 1.32 1.32 2 2 C4.55623839 2.64645196 4.55623839 2.64645196 7.4375 3.0625 C10.43568448 3.54556301 13.11346182 4.03782061 16 5 C13.29437257 6.35281371 11.08106345 6.20609362 8.0625 6.25 C7.00160156 6.27578125 5.94070312 6.3015625 4.84765625 6.328125 C2 6 2 6 0.12109375 4.484375 C-0.24886719 3.99453125 -0.61882812 3.5046875 -1 3 C-0.67 2.01 -0.34 1.02 0 0 Z " fill="#1570BB" transform="translate(69,124)"/>
<path d="M0 0 C7.31110994 -0.3689719 13.21256822 0.18447274 20 3 C20 3.66 20 4.32 20 5 C20.99 5 21.98 5 23 5 C23 5.66 23 6.32 23 7 C19.37 6.01 15.74 5.02 12 4 C12 3.34 12 2.68 12 2 C8.04 1.67 4.08 1.34 0 1 C0 0.67 0 0.34 0 0 Z " fill="#0C5DC8" transform="translate(89,58)"/>
<path d="M0 0 C1.38160733 4.14482198 -0.21288083 6.78302529 -1.8125 10.625 C-2.08642578 11.31851563 -2.36035156 12.01203125 -2.64257812 12.7265625 C-4.7363868 17.8681934 -4.7363868 17.8681934 -7 19 C-5.07289294 8.44191344 -5.07289294 8.44191344 -3 4 C-2.34 4 -1.68 4 -1 4 C-0.67 2.68 -0.34 1.36 0 0 Z " fill="#2583B9" transform="translate(306,128)"/>
<path d="M0 0 C0.99 1.0209375 0.99 1.0209375 2 2.0625 C5.49468234 5.56725347 9.25130779 8.77221788 13 12 C10 13 10 13 8.02734375 12.28515625 C2.47156245 9.03476458 2.47156245 9.03476458 1.03515625 5.8828125 C0.5 3.6875 0.5 3.6875 0 0 Z " fill="#1C64B6" transform="translate(47,142)"/>
<path d="M0 0 C0 1.32 0 2.64 0 4 C-1.95513161 4.696553 -3.91422476 5.38199565 -5.875 6.0625 C-6.96554688 6.44535156 -8.05609375 6.82820313 -9.1796875 7.22265625 C-12 8 -12 8 -14 7 C-12.37554381 6.01993141 -10.75041739 5.04097364 -9.125 4.0625 C-8.22007813 3.51722656 -7.31515625 2.97195312 -6.3828125 2.41015625 C-2.31024931 0 -2.31024931 0 0 0 Z " fill="#2461B3" transform="translate(64,47)"/>
<path d="M0 0 C2.125 0.9375 2.125 0.9375 4 2 C2.78395887 3.32467011 1.55154778 4.63432405 0.3125 5.9375 C-0.37199219 6.66839844 -1.05648437 7.39929688 -1.76171875 8.15234375 C-4.23537632 10.19429843 -5.85043641 10.65249999 -9 11 C-8.21625 10.46375 -7.4325 9.9275 -6.625 9.375 C-3.64570922 6.6794512 -3.09412358 4.78735086 -2 1 C-1.34 0.67 -0.68 0.34 0 0 Z " fill="#1F77B7" transform="translate(192,83)"/>
<path d="M0 0 C-0.99 0.7734375 -0.99 0.7734375 -2 1.5625 C-5.75333644 4.61208585 -9.37602035 7.7986681 -13 11 C-13.33 10.01 -13.66 9.02 -14 8 C-13.175 7.21625 -12.35 6.4325 -11.5 5.625 C-8.77011494 3.36278736 -8.77011494 3.36278736 -9 1 C-5.8035914 -0.06546953 -3.34252724 -0.07427838 0 0 Z " fill="#247BB4" transform="translate(218,65)"/>
<path d="M0 0 C1.32 0.99 2.64 1.98 4 3 C3.61479436 5.53910197 3.29902057 6.72751123 1.37109375 8.484375 C0.73300781 8.90203125 0.09492188 9.3196875 -0.5625 9.75 C-1.20316406 10.17796875 -1.84382812 10.6059375 -2.50390625 11.046875 C-3.24447266 11.51867187 -3.24447266 11.51867187 -4 12 C-3.67 10.35 -3.34 8.7 -3 7 C-1.68 6.67 -0.36 6.34 1 6 C0.67 4.02 0.34 2.04 0 0 Z " fill="#1E69B5" transform="translate(143,142)"/>
<path d="M0 0 C4.49161216 1.41164954 6.74757704 3.66824965 10 7 C11.9497764 8.43692052 13.9464188 9.71054204 16 11 C15.67 12.32 15.34 13.64 15 15 C10 10 5 5 0 0 Z " fill="#1F61B6" transform="translate(117,68)"/>
<path d="M0 0 C0.66 0.99 1.32 1.98 2 3 C0.54648985 4.98287496 -0.91247287 6.96129387 -2.375 8.9375 C-2.7875 9.50146484 -3.2 10.06542969 -3.625 10.64648438 C-6.7734375 14.88671875 -6.7734375 14.88671875 -9 16 C-9.3125 13.6875 -9.3125 13.6875 -9 11 C-6.5 9.375 -6.5 9.375 -4 8 C-4 7.01 -4 6.02 -4 5 C-3.01 5 -2.02 5 -1 5 C-0.67 3.35 -0.34 1.7 0 0 Z " fill="#3186B4" transform="translate(297,146)"/>
<path d="M0 0 C-0.969375 0.45375 -1.93875 0.9075 -2.9375 1.375 C-6.07079582 2.65786221 -6.07079582 2.65786221 -7 5 C-10.4375 6.1875 -10.4375 6.1875 -14 7 C-14.66 6.67 -15.32 6.34 -16 6 C-14.37554381 5.01993141 -12.75041739 4.04097364 -11.125 3.0625 C-10.22007812 2.51722656 -9.31515625 1.97195312 -8.3828125 1.41015625 C-4.91313871 -0.64320807 -3.86078066 -1.1582342 0 0 Z " fill="#227DBE" transform="translate(216,47)"/>
<path d="M0 0 C0.66 0 1.32 0 2 0 C3.19706817 2.6210121 4.38288646 5.24614696 5.5625 7.875 C5.90474609 8.62136719 6.24699219 9.36773437 6.59960938 10.13671875 C7.45973857 12.06549332 8.23616798 14.0311033 9 16 C8.67 16.66 8.34 17.32 8 18 C7.03697644 16.44038638 6.07978996 14.87716775 5.125 13.3125 C4.59132813 12.44238281 4.05765625 11.57226562 3.5078125 10.67578125 C1.46170563 7.04473668 0 4.20230146 0 0 Z " fill="#235EB7" transform="translate(23,134)"/>
<path d="M0 0 C1.98 0 3.96 0 6 0 C4.68774191 3.93677426 2.8038606 4.8271782 -0.5625 7.1875 C-1.57441406 7.90292969 -2.58632812 8.61835938 -3.62890625 9.35546875 C-4.41136719 9.89816406 -5.19382812 10.44085938 -6 11 C-6.33 10.34 -6.66 9.68 -7 9 C-5.6875 7.5 -5.6875 7.5 -4 6 C-3.01 6 -2.02 6 -1 6 C-0.67 4.02 -0.34 2.04 0 0 Z " fill="#1F60B2" transform="translate(123,164)"/>
<path d="M0 0 C2.18840439 3.28260659 4.15885893 6.50818073 6 10 C5.67 10.66 5.34 11.32 5 12 C4.38125 11.67 3.7625 11.34 3.125 11 C1.08981656 9.85806765 1.08981656 9.85806765 -1 10 C-0.67 9.01 -0.34 8.02 0 7 C0.03954234 4.66700175 0.04401732 2.33291811 0 0 Z " fill="#1C60BC" transform="translate(41,130)"/>
<path d="M0 0 C1.98 0 3.96 0 6 0 C2.91730861 2.44413389 -0.28471111 4.33109524 -3.75 6.1875 C-4.73484375 6.71730469 -5.7196875 7.24710937 -6.734375 7.79296875 C-7.48203125 8.19128906 -8.2296875 8.58960937 -9 9 C-9 6 -9 6 -7 4 C-5.989375 3.67 -4.97875 3.34 -3.9375 3 C-0.87849194 2.34247444 -0.87849194 2.34247444 0 0 Z " fill="#235FAF" transform="translate(67,63)"/>
<path d="M0 0 C4.66825827 -0.70731186 7.03280231 1.07722471 10.64453125 3.7109375 C11.09183594 4.13632813 11.53914062 4.56171875 12 5 C12 5.66 12 6.32 12 7 C7.39104317 5.68315519 3.85859765 3.84801255 0 1 C0 0.67 0 0.34 0 0 Z " fill="#2385BE" transform="translate(184,168)"/>
<path d="M0 0 C-1.28965176 1.37562854 -2.62689293 2.70766393 -4 4 C-4.66 4 -5.32 4 -6 4 C-6 3.34 -6 2.68 -6 2 C-10.41522109 3.26974972 -10.41522109 3.26974972 -14 6 C-13.8125 4.125 -13.8125 4.125 -13 2 C-8.82344286 -0.53124675 -4.72566806 -0.16019214 0 0 Z " fill="#0E74C9" transform="translate(82,97)"/>
<path d="M0 0 C1.32 0.33 2.64 0.66 4 1 C0.04 4.465 0.04 4.465 -4 8 C-4.66 7.67 -5.32 7.34 -6 7 C-4.75006004 3.25018012 -3.2769294 2.13381449 0 0 Z " fill="#1671C3" transform="translate(198,54)"/>
<path d="M0 0 C6.435 2.97 6.435 2.97 13 6 C9.93981819 7.0200606 8.96555316 7.04286967 5.9375 6.375 C5.24527344 6.23835937 4.55304688 6.10171875 3.83984375 5.9609375 C2 5 2 5 0 0 Z " fill="#2163B6" transform="translate(60,155)"/>
<path d="M0 0 C0.66 0.33 1.32 0.66 2 1 C1.34 2.32 0.68 3.64 0 5 C-0.99 5 -1.98 5 -3 5 C-3.12375 5.763125 -3.2475 6.52625 -3.375 7.3125 C-4 10 -4 10 -6 13 C-5.63118644 6.85310727 -4.09949571 4.30972626 0 0 Z " fill="#296DAE" transform="translate(67,99)"/>
<path d="M0 0 C2.64 0.66 5.28 1.32 8 2 C8.33 3.32 8.66 4.64 9 6 C8.34 6 7.68 6 7 6 C7 5.34 7 4.68 7 4 C6.01 4.33 5.02 4.66 4 5 C1.8125 3.6875 1.8125 3.6875 0 2 C0 1.34 0 0.68 0 0 Z " fill="#1461C4" transform="translate(115,47)"/>
<path d="M0 0 C3.91402949 1.26941497 5.79072873 2.51167694 8 6 C5.125 6.125 5.125 6.125 2 6 C1.34 5.34 0.68 4.68 0 4 C0.66 4 1.32 4 2 4 C2 3.34 2 2.68 2 2 C1.01 1.67 0.02 1.34 -1 1 C-0.67 0.67 -0.34 0.34 0 0 Z " fill="#177FC0" transform="translate(164,130)"/>
<path d="M0 0 C1.5 1.375 1.5 1.375 3 3 C3 3.66 3 4.32 3 5 C1.1875 5.6875 1.1875 5.6875 -1 6 C-2.75 4.5625 -2.75 4.5625 -4 3 C-2.68 2.01 -1.36 1.02 0 0 Z M-5 4 C-4.67 4.66 -4.34 5.32 -4 6 C-4.66 5.67 -5.32 5.34 -6 5 C-5.67 4.67 -5.34 4.34 -5 4 Z " fill="#0783CB" transform="translate(199,57)"/>
<path d="M0 0 C2.875 0.1875 2.875 0.1875 6 1 C7.25 3.375 7.25 3.375 8 6 C8.99 7.485 8.99 7.485 10 9 C6.78956118 7.61811547 4.95063635 6.07578097 2.75 3.375 C2.22921875 2.74335938 1.7084375 2.11171875 1.171875 1.4609375 C0.78515625 0.97882813 0.3984375 0.49671875 0 0 Z " fill="#2681B5" transform="translate(174,159)"/>
<path d="M0 0 C0.99 0.33 1.98 0.66 3 1 C0.69 3.31 -1.62 5.62 -4 8 C-4.66 6.68 -5.32 5.36 -6 4 C-4.68 4 -3.36 4 -2 4 C-1.34 2.68 -0.68 1.36 0 0 Z " fill="#1F7BB6" transform="translate(201,76)"/>
<path d="M0 0 C-1.3125 2.5 -1.3125 2.5 -3 5 C-3.99 5 -4.98 5 -6 5 C-6.33 3.35 -6.66 1.7 -7 0 C-4.3333581 -1.33332095 -2.83319697 -0.67102033 0 0 Z " fill="#105FC5" transform="translate(56,73)"/>
<path d="M0 0 C0.66 0.99 1.32 1.98 2 3 C2.99387334 4.33790641 3.9926892 5.67218122 5 7 C4.67 7.66 4.34 8.32 4 9 C1.36 6.69 -1.28 4.38 -4 2 C-2.68 1.34 -1.36 0.68 0 0 Z " fill="#2380C0" transform="translate(169,150)"/>
<path d="M0 0 C1.52299523 2.93720508 2.80100302 5.9168649 4 9 C2.85073734 8.04578192 1.70569459 7.08647955 0.5625 6.125 C-0.07558594 5.59132813 -0.71367187 5.05765625 -1.37109375 4.5078125 C-3 3 -3 3 -4 1 C-2.68 0.67 -1.36 0.34 0 0 Z " fill="#2482BD" transform="translate(275,71)"/>
<path d="M0 0 C0.33 0.99 0.66 1.98 1 3 C-2.26760563 8.63380282 -2.26760563 8.63380282 -5 10 C-5 9.01 -5 8.02 -5 7 C-4.34 7 -3.68 7 -3 7 C-3 5.68 -3 4.36 -3 3 C-2.34 3 -1.68 3 -1 3 C-0.67 2.01 -0.34 1.02 0 0 Z " fill="#2B7EB8" transform="translate(266,117)"/>
<path d="M0 0 C0.33 0 0.66 0 1 0 C1.25 7.625 1.25 7.625 -1 11 C-1.22174933 9.54364629 -1.42698698 8.08477044 -1.625 6.625 C-1.74101563 5.81289062 -1.85703125 5.00078125 -1.9765625 4.1640625 C-1.98429687 3.44992188 -1.99203125 2.73578125 -2 2 C-1.34 1.34 -0.68 0.68 0 0 Z " fill="#155CBD" transform="translate(62,109)"/>
<path d="M0 0 C2.31 1.98 4.62 3.96 7 6 C5.02 6.99 5.02 6.99 3 8 C0 3.375 0 3.375 0 0 Z " fill="#1862B6" transform="translate(172,95)"/>
<path d="M0 0 C2.97 0.495 2.97 0.495 6 1 C5.01 1.495 5.01 1.495 4 2 C3.34786708 4.02463255 3.34786708 4.02463255 3 6 C1.5 4.6875 1.5 4.6875 0 3 C0 2.01 0 1.02 0 0 Z " fill="#1984BA" transform="translate(161,145)"/>
<path d="M0 0 C2.64 0 5.28 0 8 0 C8 0.66 8 1.32 8 2 C8.99 2 9.98 2 11 2 C11 2.66 11 3.32 11 4 C7.37 3.01 3.74 2.02 0 1 C0 0.67 0 0.34 0 0 Z " fill="#1F5FAD" transform="translate(101,61)"/>
<path d="M0 0 C2.475 0.495 2.475 0.495 5 1 C5 1.99 5 2.98 5 4 C5.66 4 6.32 4 7 4 C6.67 4.99 6.34 5.98 6 7 C6 6.34 6 5.68 6 5 C5.195625 4.731875 4.39125 4.46375 3.5625 4.1875 C2.716875 3.795625 1.87125 3.40375 1 3 C0.67 2.01 0.34 1.02 0 0 Z " fill="#1B85C3" transform="translate(263,46)"/>
<path d="M0 0 C-3.75 2 -3.75 2 -6 2 C-6 2.66 -6 3.32 -6 4 C-7.32 3.34 -8.64 2.68 -10 2 C-6.3558226 -0.4294516 -4.28758728 -0.16179575 0 0 Z " fill="#0884C9" transform="translate(232,43)"/>
<path d="M0 0 C1.670625 0.061875 1.670625 0.061875 3.375 0.125 C3.375 0.455 3.375 0.785 3.375 1.125 C1.725 1.125 0.075 1.125 -1.625 1.125 C-1.955 2.445 -2.285 3.765 -2.625 5.125 C-3.285 5.125 -3.945 5.125 -4.625 5.125 C-4.955 4.135 -5.285 3.145 -5.625 2.125 C-3.625 0.125 -3.625 0.125 0 0 Z " fill="#188AC0" transform="translate(219.625,163.875)"/>
<path d="M0 0 C0.66 0 1.32 0 2 0 C0.8141763 3.37503669 -0.27573689 5.64722731 -3 8 C-3.99 7.67 -4.98 7.34 -6 7 C-5.34 7 -4.68 7 -4 7 C-3.67 6.01 -3.34 5.02 -3 4 C-2.34 3.67 -1.68 3.34 -1 3 C-0.67 2.01 -0.34 1.02 0 0 Z " fill="#0C75C6" transform="translate(88,120)"/>
<path d="M0 0 C2.4375 0.75 2.4375 0.75 5 2 C5.8125 4.125 5.8125 4.125 6 6 C4.68 5.67 3.36 5.34 2 5 C2 4.01 2 3.02 2 2 C1.01 1.67 0.02 1.34 -1 1 C-0.67 0.67 -0.34 0.34 0 0 Z " fill="#0F60C2" transform="translate(110,61)"/>
<path d="M0 0 C0.66 0 1.32 0 2 0 C2 0.66 2 1.32 2 2 C2.99 2 3.98 2 5 2 C5 2.99 5 3.98 5 5 C3.02 4.34 1.04 3.68 -1 3 C-0.67 2.01 -0.34 1.02 0 0 Z " fill="#1864BE" transform="translate(55,171)"/>
<path d="M0 0 C0.66 0.99 1.32 1.98 2 3 C0.35 4.65 -1.3 6.3 -3 8 C-3.33 7.01 -3.66 6.02 -4 5 C-3.01 5 -2.02 5 -1 5 C-0.67 3.35 -0.34 1.7 0 0 Z " fill="#2084BB" transform="translate(297,146)"/>
<path d="M0 0 C2.475 0.495 2.475 0.495 5 1 C5.33 2.32 5.66 3.64 6 5 C3.5625 4.1875 3.5625 4.1875 1 3 C0.67 2.01 0.34 1.02 0 0 Z " fill="#1980BC" transform="translate(238,124)"/>
<path d="M0 0 C-1.6875 1.5625 -1.6875 1.5625 -4 3 C-6.75 2.6875 -6.75 2.6875 -9 2 C-5.5647952 -0.29013653 -4.014669 -0.17842973 0 0 Z " fill="#177EC3" transform="translate(218,65)"/>
<path d="M0 0 C2.31 0 4.62 0 7 0 C7 0.66 7 1.32 7 2 C4.69 2.33 2.38 2.66 0 3 C0 2.01 0 1.02 0 0 Z " fill="#1860BA" transform="translate(73,60)"/>
<path d="M0 0 C0 1.32 0 2.64 0 4 C-1.98 4.33 -3.96 4.66 -6 5 C-5.34 4.67 -4.68 4.34 -4 4 C-4 3.01 -4 2.02 -4 1 C-2 0 -2 0 0 0 Z " fill="#175FBE" transform="translate(64,47)"/>
</svg>
